<svg width="41" height="41" viewBox="0 0 41 41" fill="none" xmlns="http://www.w3.org/2000/svg">
<g clip-path="url(#clip0_1_2)">
<path d="M26.379 26.7078C29.9071 23.2121 29.9071 17.5443 26.379 14.0485C22.851 10.5527 17.131 10.5527 13.603 14.0485C10.0749 17.5443 10.0749 23.2121 13.603 26.7078C17.131 30.2036 22.851 30.2036 26.379 26.7078Z" fill="#F4F9F1"/>
<path d="M15.629 8.64397C15.629 3.86792 19.5326 0 24.3527 0C24.3527 4.77605 20.4491 8.64397 15.629 8.64397Z" fill="#F4F9F1"/>
<path d="M9.03891 14.1696C5.94027 10.513 6.42519 5.05951 10.1154 1.9892C13.2141 5.64571 12.7292 11.0992 9.03891 14.1696Z" fill="#F4F9F1"/>
<path d="M7.57446 22.5973C2.82709 21.7661 -0.339438 17.2831 0.494625 12.5792C5.23714 13.4104 8.40852 17.8934 7.56961 22.5925L7.57446 22.5973Z" fill="#F4F9F1"/>
<path d="M9.03891 14.1696C5.94027 10.513 6.42519 5.05951 10.1154 1.9892C13.2141 5.64571 12.7292 11.0992 9.03891 14.1696Z" fill="#F4F9F1"/>
<path d="M11.9193 29.9824C7.74902 32.3704 2.41005 30.953 0 26.816C4.17031 24.428 9.50928 25.8454 11.9193 29.9824Z" fill="#F4F9F1"/>
<path d="M11.9193 29.9824C7.74902 32.3704 2.41005 30.953 0 26.816C4.17031 24.428 9.50928 25.8454 11.9193 29.9824Z" fill="#F4F9F1"/>
<path d="M20.0418 32.8798C18.393 37.3675 13.3887 39.6787 8.8595 38.045C10.5082 33.5573 15.5126 31.2461 20.0418 32.8798Z" fill="#F4F9F1"/>
<path d="M20.0418 32.8798C18.393 37.3675 13.3887 39.6787 8.8595 38.045C10.5082 33.5573 15.5126 31.2461 20.0418 32.8798Z" fill="#F4F9F1"/>
<path d="M28.1399 29.92C29.7887 34.4077 27.4514 39.3664 22.927 41C21.2783 36.5123 23.6156 31.5536 28.1399 29.92Z" fill="#F4F9F1"/>
<path d="M28.1399 29.92C29.7887 34.4077 27.4514 39.3664 22.927 41C21.2783 36.5123 23.6156 31.5536 28.1399 29.92Z" fill="#F4F9F1"/>
<path d="M32.4266 22.4964C36.5969 24.8844 38.0275 30.1698 35.6223 34.3068C31.4519 31.9188 30.0214 26.6334 32.4266 22.4964Z" fill="#F4F9F1"/>
<path d="M32.4266 22.4964C36.5969 24.8844 38.0275 30.1698 35.6223 34.3068C31.4519 31.9188 30.0214 26.6334 32.4266 22.4964Z" fill="#F4F9F1"/>
<path d="M30.8943 14.0831C35.6417 13.2518 40.166 16.3942 41 21.0934C36.2575 21.9246 31.7283 18.7823 30.8943 14.0831Z" fill="#F4F9F1"/>
<path d="M30.8943 14.0831C35.6417 13.2518 40.166 16.3942 41 21.0934C36.2575 21.9246 31.7283 18.7823 30.8943 14.0831Z" fill="#F4F9F1"/>
<path d="M24.2606 8.61034C27.3592 4.95383 32.8582 4.47815 36.5533 7.54366C33.4546 11.2002 27.9557 11.6759 24.2606 8.61034Z" fill="#F4F9F1"/>
</g>
<defs>
<clipPath id="clip0_1_2">
<rect width="41" height="41" fill="white"/>
</clipPath>
</defs>
</svg>
